PathFileType	4	(X/Y/Z)	C:/Users/opensim2020/Desktop/walking_exp_matlab/subject01_walking12_straight_04.trc																																																																																																																																		
DataRate	CameraRate	NumFrames	NumMarkers	Units	OrigDataRate	OrigDataStartFrame	OrigNumFrames																																																																																																																														
100	100	5	44	mm	100	2501	172																																																																																																																														
Frame#	Time	LFHD			RFHD			LBHD			RBHD			C7			T10			CLAV			STRN			RBAK			LSHO			LUPA			LELB			LFRM			LWRA			LWRB			LFIN			RSHO			RUPA			RELB			RFRM			RWRA			RWRB			RFIN			LASI			RASI			LPSI			RPSI			LTHI			LKNE			LTIB			LANK			LHEE			LTOE			RTHI			RKNE			RTIB			RANK			RHEE			RTOE			*39			*40			*41			*42			*43		
		X1	Y1	Z1	X2	Y2	Z2	X3	Y3	Z3	X4	Y4	Z4	X5	Y5	Z5	X6	Y6	Z6	X7	Y7	Z7	X8	Y8	Z8	X9	Y9	Z9	X10	Y10	Z10	X11	Y11	Z11	X12	Y12	Z12	X13	Y13	Z13	X14	Y14	Z14	X15	Y15	Z15	X16	Y16	Z16	X17	Y17	Z17	X18	Y18	Z18	X19	Y19	Z19	X20	Y20	Z20	X21	Y21	Z21	X22	Y22	Z22	X23	Y23	Z23	X24	Y24	Z24	X25	Y25	Z25	X26	Y26	Z26	X27	Y27	Z27	X28	Y28	Z28	X29	Y29	Z29	X30	Y30	Z30	X31	Y31	Z31	X32	Y32	Z32	X33	Y33	Z33	X34	Y34	Z34	X35	Y35	Z35	X36	Y36	Z36	X37	Y37	Z37	X38	Y38	Z38	X39	Y39	Z39	X40	Y40	Z40	X41	Y41	Z41	X42	Y42	Z42	X43	Y43	Z43	X44	Y44	Z44
																																																																																																																																					
130	1.29	509.29935	1638.86279	-1557.52185	519.68097	1638.04041	-1443.89587	386.1116	1622.11743	-1554.75342	393.6272	1621.03748	-1433.91199	307.71808	1420.90894	-1519.89429	268.96124	1124.71765	-1503.04016	449.80298	1348.78455	-1510.93896	491.02542	1195.54456	-1516.3175	247.3828	1224.25549	-1443.27283	396.4978	1381.92236	-1674.64246	395.7551	1203.88379	-1769.20642	426.12088	1053.87817	-1787.896	531.41888	1003.01062	-1810.13635	667.98578	986.35669	-1792.43298	635.45239	940.52228	-1812.17456	716.22083	932.31854	-1829.95007	380.22394	1379.62415	-1361.2196	281.14267	1193.51404	-1269.29688	256.61322	1072.86487	-1265.69165	248.627	954.36572	-1231.51917	293.86673	818.97333	-1240.95923	248.62982	833.51776	-1207.48608	262.28922	748.31262	-1204.98486	444.23047	923.69525	-1618.34229	461.76114	926.14215	-1399.66699	262.51743	929.37122	-1545.46838	275.99152	926.38953	-1402.36755	353.45145	596.52661	-1665.38672	312.91238	464.14417	-1649.46643	203.08548	307.52066	-1655.02502	97.75339	113.79853	-1605.0802	44.24207	104.92233	-1554.44421	221.82748	31.4077	-1599.03845	489.92801	599.24121	-1330.58691	554.78119	458.26028	-1360.53503	561.34564	283.69443	-1351.54211	620.85547	80.86678	-1393.96912	595.53845	28.4552	-1449.56628	764.26959	89.72741	-1383.10803	516.50171	1673.54431	-1465.76184	-1973.0509	1023.72308	3102.04834	-2012.47839	1021.99115	3140.67065	NaN	NaN	NaN	NaN	NaN	NaN
131	1.3	518.70197	1638.15674	-1555.08167	529.04919	1637.29663	-1441.44128	395.52432	1621.09863	-1552.32654	403.12073	1619.98083	-1431.4978	317.71021	1419.48486	-1517.60034	280.36081	1123.15601	-1501.52612	460.14301	1348.13428	-1508.74597	502.13901	1195.02771	-1514.53394	258.31339	1222.40857	-1441.52832	406.61606	1381.36243	-1672.42371	405.80054	1203.52576	-1767.24182	436.38269	1053.60522	-1786.48865	542.08521	1003.30072	-1808.56128	678.69629	987.58514	-1790.50671	646.50134	941.51227	-1810.41223	727.37238	934.04822	-1828.05676	390.31519	1378.23547	-1358.98718	291.16003	1191.81799	-1267.91895	266.88412	1071.31311	-1264.30383	258.37094	952.87085	-1230.27942	303.3259	817.41791	-1239.63196	257.51956	832.01239	-1206.40039	270.73688	746.61456	-1203.95813	456.17532	922.64355	-1617.31482	474.14969	925.01935	-1398.66284	274.9693	928.19031	-1543.84155	288.3187	925.11017	-1400.93591	363.83511	595.75146	-1664.87341	322.63434	463.646	-1649.59509	209.86563	308.9375	-1655.37964	100.49672	117.2681	-1605.98267	46.8432	109.71642	-1555.41736	222.07706	31.46394	-1599.17151	502.85916	598.25342	-1331.11609	566.2356	456.88858	-1361.04932	571.7843	281.67377	-1352.50317	629.13873	78.54379	-1395.61462	603.3869	26.53246	-1451.04956	772.79297	86.57146	-1385.52869	525.91693	1672.89832	-1463.27393	-1972.99048	1023.40192	3101.90308	-2012.5365	1022.18323	3140.63306	NaN	NaN	NaN	NaN	NaN	NaN
132	1.31	527.98273	1637.48181	-1552.59851	538.33936	1636.61743	-1438.90833	404.88522	1620.03748	-1549.8927	412.60651	1618.89368	-1428.65601	327.84631	1417.99817	-1515.26135	291.91095	1121.45215	-1499.98096	470.55695	1347.36536	-1506.46326	513.40845	1194.57373	-1512.65442	269.32275	1220.48022	-1439.79272	416.77844	1380.75964	-1670.12378	415.84354	1203.14868	-1765.20203	446.38022	1053.30493	-1785.02686	552.37665	1003.41479	-1806.87659	688.93115	988.30963	-1788.55994	657.04871	942.0946	-1808.62573	738.08282	935.12488	-1826.06018	400.30786	1376.82239	-1356.77026	301.36252	1189.98328	-1266.43591	277.41656	1069.60925	-1262.7627	268.45691	951.31165	-1228.96228	312.57452	815.4939	-1238.55017	267.2034	830.40161	-1205.20435	279.58646	744.8194	-1202.99658	468.36224	921.48309	-1616.06104	486.92581	923.93689	-1397.6311	287.22498	927.22876	-1542.43677	300.94656	923.79913	-1399.43201	374.74649	594.81122	-1664.32935	332.81064	462.85086	-1649.39697	217.12065	310.29056	-1655.66846	103.56357	120.90529	-1606.92163	49.96134	114.73544	-1556.31824	222.39449	31.50671	-1599.33069	516.33148	597.01489	-1331.3208	577.56396	454.9921	-1361.55933	581.3382	279.2128	-1353.53796	635.8064	75.79986	-1397.68652	608.59967	25.55792	-1452.4845	779.74976	82.39508	-1387.93225	535.12708	1672.24841	-1460.75378	-1973.10706	1023.49243	3101.91016	-2012.40625	1021.90662	3140.68286	NaN	NaN	NaN	NaN	NaN	NaN
133	1.32	537.14478	1636.82141	-1550.06885	547.50006	1635.96252	-1436.41821	414.10199	1618.81824	-1547.39587	421.64624	1617.70911	-1426.54431	337.90506	1416.39941	-1512.78052	303.65195	1119.66187	-1498.38086	481.00958	1346.53003	-1504.01648	524.85138	1194.08154	-1510.74084	280.55087	1218.4353	-1437.9248	427.04086	1380.0896	-1667.62683	425.88696	1202.69116	-1763.15234	456.09601	1052.8125	-1783.46387	562.30579	1003.25519	-1805.13037	698.87952	988.54706	-1786.50073	667.20703	942.33728	-1806.80981	748.38043	935.59302	-1823.92578	410.50867	1375.26709	-1354.42566	311.75729	1188.08936	-1264.82129	288.15405	1067.77612	-1261.32312	278.87704	949.5022	-1227.6012	322.56033	813.66144	-1237.34058	276.81573	828.66992	-1204.19324	289.07022	742.98822	-1201.93054	480.7352	920.29108	-1614.85535	499.89236	922.75391	-1396.40002	299.8537	926.23096	-1540.85754	313.79092	922.60529	-1397.94531	386.37881	593.66827	-1663.70422	343.79346	461.89697	-1649.35291	224.93132	311.57056	-1655.92712	106.98148	124.66633	-1607.76221	53.48907	120.02583	-1557.19458	222.65575	31.57523	-1599.48047	529.63196	595.45551	-1331.98816	588.62823	452.86353	-1362.0166	590.57928	276.79715	-1354.70569	642.17926	73.7559	-1399.14087	612.02283	25.39864	-1453.39624	785.62769	77.01366	-1390.75024	544.12488	1671.60913	-1458.23218	-1973.09119	1023.44849	3102.06274	-2012.552	1022.04456	3140.52954	NaN	NaN	NaN	NaN	NaN	NaN
134	1.33	546.18066	1636.18347	-1547.50415	556.59851	1635.37097	-1433.78821	423.28412	1617.52466	-1544.82312	430.82288	1616.42053	-1423.9552	347.92532	1414.75293	-1510.17639	315.45923	1117.75989	-1496.68591	491.56049	1345.65234	-1501.53467	536.28101	1193.49158	-1508.65906	291.84634	1216.21204	-1435.97278	437.34961	1379.3689	-1665.07605	436.05042	1202.19067	-1761.05444	465.534	1052.24927	-1781.75232	571.89874	1002.85767	-1803.30029	708.5174	988.30005	-1784.37939	676.96948	942.12097	-1804.94971	758.23572	935.45166	-1821.61853	420.74112	1373.70483	-1351.80334	322.28445	1186.06567	-1263.08691	299.16629	1065.8335	-1259.63403	289.54575	947.5918	-1226.30298	332.26126	811.35797	-1236.39331	287.24139	826.62128	-1202.99866	298.93497	740.95245	-1200.91235	493.39499	919.01416	-1613.44446	513.03693	921.61176	-1395.14539	312.49924	925.27356	-1539.31543	326.77768	921.35022	-1396.20532	398.56079	592.30377	-1662.99805	355.49509	460.66486	-1649.3739	233.26381	312.89944	-1656.20544	110.98026	128.68886	-1608.70898	57.55729	125.73225	-1558.03271	223.08144	31.89334	-1599.66809	542.63287	593.97858	-1332.93579	599.2652	450.56479	-1362.19971	598.92883	274.22849	-1356.31262	646.92847	72.05336	-1400.91699	613.15332	25.46555	-1454.58569	790.25031	68.4098	-1393.68286	552.9801	1670.95593	-1455.62781	-1973.03516	1023.55804	3101.93628	-2012.52234	1021.99915	3140.64478	NaN	NaN	NaN	NaN	NaN	NaN
